<svg width="948" height="948" viewBox="0 0 948 948" fill="none" xmlns="http://www.w3.org/2000/svg">
<rect width="948" height="948" rx="474" fill="#000C24"/>
<path d="M696.364 565.583H251.583V696.417H696.364V565.583ZM734.215 538.681L734.78 540.296L735.384 542.936L735.617 545.516V716.042C735.617 725.977 728.233 734.188 718.656 735.489L715.992 735.667H231.958C222.023 735.667 213.812 728.282 212.513 718.705L212.333 716.042V545.974L212.382 544.59L212.666 542.353C212.931 540.945 213.339 539.605 213.876 538.336L286.077 380.847C288.875 374.745 294.561 370.558 301.079 369.607L303.917 369.401L370.375 369.381L349.732 405.236L347.951 408.631L316.503 408.636L262.521 526.328H685.165L632.12 412.609L654.686 373.429C656.429 374.76 657.954 376.387 659.184 378.259L660.561 380.73L734.215 538.681ZM509.723 213.79L512.115 214.966L647.87 293.548C656.458 298.519 659.87 309.025 656.214 317.976L655.039 320.373L581.597 447.86L611.375 447.875C622.213 447.875 631 456.662 631 467.5C631 477.436 623.616 485.647 614.039 486.947L611.375 487.125L558.989 487.11L558.966 487.188H452.258L452.177 487.11L336.625 487.125C325.787 487.125 317 478.338 317 467.5C317 457.565 324.383 449.354 333.962 448.056L336.625 447.875L384.327 447.86L379.576 445.12C370.989 440.148 367.576 429.642 371.233 420.691L372.407 418.294L485.359 222.155C490.315 213.546 500.795 210.124 509.723 213.79ZM509.48 258.787L416.115 420.913L462.644 447.86H536.355L611.323 317.737L509.48 258.787Z" fill="white"/>
</svg>
